<svg xmlns="http://www.w3.org/2000/svg" width="48" height="48" version="1.1"><g fill-rule="nonzero" fill-opacity="1"><path d="M24 48c13.254 0 24-10.746 24-24S37.254 0 24 0 0 10.746 0 24s10.746 24 24 24zm0 0" fill="#ff0002"/><path d="M35.676 20.46c-.727-.75-1.758-1.16-3.02-1.16-1.562 0-2.765.637-3.46 1.829v-5.91h-3.63v16.203h3.63v-5.695c0-1.329.273-2.18.683-2.68.394-.5.953-.692 1.555-.692.53 0 .953.168 1.246.477.297.316.465.805.465 1.484v7.094h3.632v-7.808c0-1.329-.386-2.407-1.101-3.141zM19.438 19.3c-1.567 0-2.77.637-3.461 1.829v-5.91h-3.63v16.203h3.63v-5.695c0-1.329.273-2.18.68-2.68.398-.5.956-.692 1.554-.692.535 0 .953.168 1.25.477.297.316.465.805.465 1.484v7.094h3.633v-7.808c0-1.329-.387-2.407-1.114-3.153-.715-.75-1.746-1.148-3.008-1.148zm0 0" fill="#fff"/></g></svg>